<?xml version="1.0" encoding="utf-8"?>
<!-- Generator: Adobe Illustrator 21.0.2, SVG Export Plug-In . SVG Version: 6.00 Build 0)  -->
<svg version="1.1" id="Ebene_1" xmlns="http://www.w3.org/2000/svg" xmlns:xlink="http://www.w3.org/1999/xlink" x="0px" y="0px"
	 viewBox="0 0 245.8 66.1" style="enable-background:new 0 0 245.8 66.1;" xml:space="preserve">
<style type="text/css">
	.st0{fill:#373B86;}
	.st1{fill:#60A937;}
	.st2{fill:#323233;}
</style>
<metadata><?xpacket begin="﻿" id="W5M0MpCehiHzreSzNTczkc9d"?>
<x:xmpmeta xmlns:x="adobe:ns:meta/" x:xmptk="Adobe XMP Core 5.6-c137 79.159768, 2016/08/11-13:24:42        ">
   <rdf:RDF xmlns:rdf="http://www.w3.org/1999/02/22-rdf-syntax-ns#">
      <rdf:Description rdf:about=""
            xmlns:xmp="http://ns.adobe.com/xap/1.0/"
            xmlns:xmpGImg="http://ns.adobe.com/xap/1.0/g/img/"
            xmlns:xmpTPg="http://ns.adobe.com/xap/1.0/t/pg/"
            xmlns:stDim="http://ns.adobe.com/xap/1.0/sType/Dimensions#"
            xmlns:xmpG="http://ns.adobe.com/xap/1.0/g/"
            xmlns:dc="http://purl.org/dc/elements/1.1/">
         <xmp:CreatorTool>Adobe Illustrator CC 2017 (Windows)</xmp:CreatorTool>
         <xmp:CreateDate>2017-03-17T11:45:56+01:00</xmp:CreateDate>
         <xmp:Thumbnails>
            <rdf:Alt>
               <rdf:li rdf:parseType="Resource">
                  <xmpGImg:width>256</xmpGImg:width>
                  <xmpGImg:height>72</xmpGImg:height>
                  <xmpGImg:format>JPEG</xmpGImg:format>
                  <xmpGImg:image>/9j/4AAQSkZJRgABAgEASABIAAD/7QAsUGhvdG9zaG9wIDMuMAA4QklNA+0AAAAAABAASAAAAAEA&#xA;AQBIAAAAAQAB/+4ADkFkb2JlAGTAAAAAAf/bAIQABgQEBAUEBgUFBgkGBQYJCwgGBggLDAoKCwoK&#xA;DBAMDAwMDAwQDA4PEA8ODBMTFBQTExwbGxscHx8fHx8fHx8fHwEHBwcNDA0YEBAYGhURFRofHx8f&#xA;Hx8fHx8fHx8fHx8fHx8fHx8fHx8fHx8fHx8fHx8fHx8fHx8fHx8fHx8fHx8f/8AAEQgASAEAAwER&#xA;AAIRAQMRAf/EAaIAAAAHAQEBAQEAAAAAAAAAAAQFAwIGAQAHCAkKCwEAAgIDAQEBAQEAAAAAAAAA&#xA;AQACAwQFBgcICQoLEAACAQMDAgQCBgcDBAIGAnMBAgMRBAAFIRIxQVEGE2EicYEUMpGhBxWxQiPB&#xA;UtHhMxZi8CRygvElQzRTkqKyY3PCNUQnk6OzNhdUZHTD0uIIJoMJChgZhJRFRqS0VtNVKBry4/PE&#xA;1OT0ZXWFlaW1xdXl9WZ2hpamtsbW5vY3R1dnd4eXp7fH1+f3OEhYaHiImKi4yNjo+Ck5SVlpeYmZ&#xA;qbnJ2en5KjpKWmp6ipqqusra6voRAAICAQIDBQUEBQYECAMDbQEAAhEDBCESMUEFURNhIgZxgZEy&#xA;obHwFMHR4SNCFVJicvEzJDRDghaSUyWiY7LCB3PSNeJEgxdUkwgJChgZJjZFGidkdFU38qOzwygp&#xA;0+PzhJSktMTU5PRldYWVpbXF1eX1RlZmdoaWprbG1ub2R1dnd4eXp7fH1+f3OEhYaHiImKi4yNjo&#xA;+DlJWWl5iZmpucnZ6fkqOkpaanqKmqq6ytrq+v/aAAwDAQACEQMRAD8A5vqtmbLVLyzIobaeSGh/&#xA;4rcr3+WdTE2AXGKt5cuPq/mHS7ioHo3cElT0HGVTv92DILifckPuvOXch8Y/mv5j/wAQ+f8AV79G&#xA;5WyTG2tT29K3/dgj2YqW+nOj0uPgxgNEjZYjl7F9W/8AOOcvP8tYV5cvTu7haVrxqwant9quaLtA&#xA;fvfg3Q5JD/zk75n+r6Lp3lyF6SX8huroA/7ph2RW9mkNf9jl3ZuO5GXcjIXzhm3anvn/ADjB5WrJ&#xA;qnmeZNlH1CzJ8TSSZh9HAV+eavtLLyj8WzGOrxbzNf8A6R8yarqFeX1y8uJwfH1JWbt882OONRA8&#xA;mBSzJodirsVe9/8AOLFkPU8xag+wRbaBG7bmR3/4iuavtM/SGzG8Q1e+N/q17ft1u7iWc/ORy/8A&#xA;HNnCNABrKDwq7FU00bzP5i0WVZdJ1K5smU1AhlZVPf4kB4sPYjITxxlzFpBfTP5KfmvP5ytLjTtW&#xA;CLrlggkaSMBVnhJ4+pxH2WViA1NtxTwGl1ml8M2PpLbCVvT8wmbsVeNfm15j+vawmlQNW20/+9p0&#xA;adh8X/ADb51zQ9pZ+KfCOUfvdXrMty4e5gWaxw3Yq+gvIF/9e8oabKTVo4vQb5wkxj8FBzp9FPix&#xA;R/HJ3WnlcAyDMpueMfnFc+r5ohhB2gtUUj/KZmY/gRmg7UleQDuDq9afX8GCZrXDez/lV5q/SOmH&#xA;Sbl63tgo9Inq8HQf8B9n5Uzf9najjjwnmPudppM3EOE8wzvNk5j5184XX1rzTqs1ag3Mqqf8lGKL&#xA;+C5yuqleSR83SZjcz70Bptr9b1G1taV+sTRxU/12C/xyvHHikB3lhEWQGCfmfZfU/wAw/MUNOIN/&#xA;PKB4CZzKOw7PnqWmN44+520ubGopGjkSRDR0IZT7g1GXFD7R/MbzQmgeQ9U1mJ6Si34Wbbg+tPSO&#xA;IgddmcN9Gc5p8fHkEXIkaD4rzo3Hdir6i/5xmlD/AJfXKgU9LUpkPvWGFv8AjbNJ2iP3nwbsfJ4h&#xA;+b/mf/EXn/VLtH5Wls/1Oz8PSt6rUezvyf6c2ekx8GMBrkbLDVVmYKoLMxoANyScyGL7I0DRx5J/&#xA;Kz6vThcabp011dMP9/8AptNKajweoHtnPZJ+JlvvLeBQfG2dC0Mm/L3yTcec/MaaLBci0Jikme4Z&#xA;DIFWMD9kFepIHXKc+bw48SYi3qP/AEKvf/8AUxRf9Irf9VMwv5TH837Wfhu/6FXv/wDqYov+kVv+&#xA;qmP8pj+b9q+Gzfy35Ib8tfy58zepere3BhubwTrGYgOFtSNKcmNeSnv3zFyZvGyR2pkBQfKOb1pZ&#xA;h+Vfki185ea10e7mkt7YQSzyyQ8eYCUApyBH2mHbMfU5jjhYZRFl6vr3/OM3l+20i7urHWblLi3i&#xA;eVTcrG0R4KWo3EIQNutdswYdoyJAIZnG+eM2zU9U/wCcblnP5j1jrwWynM1P5KoBX/Zlcwe0P7v4&#xA;s4c31Rmjbko8169HoehXOoNQyIvC3Q/tStsg/ifbKNTm8OBk15snBEl87yyyTSvLKxeSRi7udyWY&#xA;1JOcsTZsujJtEWumXVxY3t6i/wCj2KxmZ+wMrhFH01yccZIJ6BkIkgnuQmVsXr35Mah6mj31iTU2&#xA;04lX/VmWlPvjOb3sqdwMe4uz0MvSQ9EzaOa8B/MW6+s+c9TcHZHWIf8APNFQ/iM5nXSvLJ02pN5C&#xA;xvMRoR2iavdaPqlvqNqf3sDV49AynZlPsw2y3FlMJCQ6M8czE2H0Pp+sWV/pMeqW78rWSMy17gAf&#xA;ED7qQQc6iGUSjxDk7qMwY2OT5tmlaaZ5X+3Ixdvmxqc5MmzboybTzyDa/WfOOlR0rxm9X/kUpk/4&#xA;0zJ0cbyx97bpxcwwr8/rP6v+aOqOBRblLeZR84EQ/wDDIc9G0JvEHZz5vO8y2L3L8/vNnr+WPKui&#xA;ROS11axandjoaGIJDUDxJkP0ZrNDiqUpfBsmdniMEEs88cEKl5pWCRoOpZjQD6TmzJprU8Ve3/lb&#xA;5rby3+Svmm/V+M8d40dkBSv1i4gijQj/AFftfIZrdTi480R5NkTQeIZsmtn35I+Vv8QfmBYiROVn&#xA;pv8Ap91UbUhI9NfD4pSu3hXMXWZeDGe87MoCy+ivzmv/AKj+WWvS1oZIFtx7/WJFiP4Pmo0kbyht&#xA;lyfG+dC0Jp5d8z675cvmv9FuzZ3bxmFpVVGPBiGI+MMOqjIZMcZipC0g0yT/AJXX+aP/AFf5f+Rc&#xA;H/VPKfyeLuTxlkn5bfmf+ZGu+etF0u61qWa1uLgG4iMcIDRxgyOpIQHdUPfKdRpsccZICYyJL2T8&#xA;8r/6l+V+ssDR51it0Hj6syKw/wCA5ZrtFG8obJ8nx/nQNCceV/N3mHytfyX+hXf1O7liMEkvpxS1&#xA;jZlcrSVXX7SDtleTFGYqQSDSba9+bH5h69YPYanrMktnKKSwxxwwB1P7L+ikZYexyENLjibA3SZE&#xA;sSVSzBRSpNBUgDf3O2XsX1d+Rv5dWXlnQ21VruDUNS1VV53Fs4lgSJSSI45B9rfdj47dqnRa3UGc&#xA;qqgG6Eaem5hM3jX5teY/r2sJpUDVttP/AL2nRp2Hxf8AADb51zQ9pZ+KfCOUfvdXrMty4e5gWaxw&#xA;3sem+URZflnfW0if6beW73c4I35qvqRp/seI+mub7HpuHTkdSLdnHDWIjqQ8czQusZ3+T1/6HmWW&#xA;1J+G8gYAf5cZDj/heWbLsydZK7w5milU673s+b92j5q1q6+t6xfXVa+vcSyA/wCu5P8AHOSyy4pk&#xA;95dDM3IlBAE9MgxdgVlvlHzi+maPq2k3DH0Lq2mNm38k5jIp8m/X88ztNquCEonkQa97k4c/DExP&#xA;cxLMFxmbflDber5tMtNre2kkr7kqn/G+bHsyN5b7g5ejFz+DEf8AnJ6zMfnbT7oD4bjT0Un/ACo5&#xA;pK/gy53XZp9BHm5+Tm8dzYME38y67LrN7bTyEkW1lZ2aBiTQW1ukTdf5nVm+nIY4cI+JSSy78iPK&#xA;v6e8+28kyFrLTEa7uD0+IDjEK+PqMG+g5j63Lw4/MpgLLz6eF4J5IX+3ExRvmpoeuZYNsUw/TUq+&#xA;Wf0IhIikvPrkw7EpF6cf3cnyHB6uLyTaV5ND6d/5xr8rfo/ylca5MlLjWJaREjcW8BKL16cpC59x&#xA;TNL2jlufD3N2MbK//OSt+bf8vorYHe9voY2HiqI8p/4ZFwdnRvJfcFycny3m7aWdeQ/yf8z+dtMn&#xA;1LSrizgt7ec27/WnlRi4RXPH04pBSjjvmNn1ccZo2yEbZL/0LD5+/wCW/Sv+R1z/ANk+U/ylj7j+&#xA;Pinwyy38rPyL8zeVfOVrrmq3VjNb2scwRLaSVpOckZjBo8MYpRj3zH1OtjOHCLZRhRTH/nJu/wDR&#xA;8j2Vmpo13fpyHikUUjH/AIYrkOzo3MnyTk5PmLN00vWvyf8Ayc0jztod5qeo3lzbCC6NtEtv6dDx&#xA;jV2J5q3+/BmBq9WccgAGcY2yHzl/zjfpOleXNQ1XS9XnM2n28lyYrpYyjrCpdl5IE4kqNvfKsPaB&#xA;lIAjmkweCZtGt7P/AM40eZtQg8zXPl5pGfTr2B50hJqqTxFfjWvTklQ1Ou3hmu7Rxgx4uobMZe/e&#xA;a9ej0PQrnUGoZEXhbof2pW2QfxPtnP6nN4cDJObJwRJfO8ssk0ryysXkkYu7nclmNSTnLE2bLoyb&#xA;VLK5W1vIblolnELrJ6MleDcTWjUpthhKiCmJo2zl/wA5dcdGR7C0KsCGB9TcHY/t5sj2pPuDmfnZ&#xA;dwef5q3CTjyhf/UPM+mXRPFUnRXPgkh4P/wrHL9NPhyRPm24ZVMF9AardfVNMvLqtPq8Ektf9RC3&#xA;8M6fJLhiT3B3MzQJfM+ci6Fk/wCW1jHeecLOOVBJCqytKjCoK+kwoQfcjMzQQ4sovz+5yNLG5hDe&#xA;dfLUnl/XJbUAm0k/e2bnesZPSvip2OQ1eDwp106Mc+LglXRIcxml2KvTfyTta3Gq3RH2EiiU/wCu&#xA;WY/8QGbfsqO8j7nP0I3JYt/zlRZb+Xb1R/y1QyH/AJFMnb/Wzr+zD9Q9zmZHgObVrdir6n/5x18q&#xA;fojySdVmTjd63J62/UW8dUhH01Z/k2aPtDLxTr+a3QGz5z872n1PznrtqBQQahdIvX7ImYKd/bNx&#xA;hNwB8g1HmkmWIRmj6Xdatq1nploOVzezR28Q7cpGCgn2Fd8jOQiCT0UPuTRtKtdI0mz0u0FLayhj&#xA;gi8Ssahamnc0qc5mcjIknq5IeIf85T34EXl7T1O7NczyDwoI0T9bZs+zI/UWvI+fs2rUy7yp+ann&#xA;Tyrprabot3Hb2jytOyNDFITIwVSeTqT0QZRl00Jm5BkJEJz/ANDBfmj/ANXKL/pGg/5oyv8AIYu5&#xA;eMrovz+/NSWRI49QiZ3IVV+rQbkmgH2cB0OLuTxll3/OUd8/reXNOZ+TxRXE8xFByLmNFNO32GzH&#xA;7Nj9RTkeEZtGt6B5J/OnzR5O0T9EaXZ2Ett6rzmS5jmaQu9AalJo16KO2YubRxySskshMh3m/wDO&#xA;/wA8+aNOk026kt7OxmFLiCzjZPUHWjNI0r09gRji0cIGxuVMyXn+ZTF7F/zjLolxc+cL3VuJFrp9&#xA;o0Zft6s7AKv/AACuc1/aM6gB3lnjG7Nfza8x/XtYTSoGrbaf/e06NOw+L/gBt865w/aWfinwjlH7&#xA;3B1mW5cPcwLNY4aKGl6kQCLSYg7giN/6ZPw5dxZcB7nforVP+WOf/kW/9MfDl3FeA9yhNBNC/CaN&#xA;o368XBU/cciQRzQRS0Eggg0I6HFD3TzPrAm/LafUQd7uzir85+KMP+HOdFqMt6cy7x97t8s7xX3h&#xA;4VnOOoegfkza8/MN3cH7MNqVH+s7rT8FObPsuP7wnyczRD1E+TPvPvlddf0N441H162rLZt3LU+J&#xA;Pk4/GmbPWafxYeY5ObqMXHHzeBMrKxVgVZTQg7EEZzTpmsCvZPyatvT8uXM5G890wH+qiKB+JOb7&#xA;suNYyfN2miHpJ80s/wCcgvKes+YvK2npo9m97e216GaGMAsImicM25H7QXOh0GWMJHiNCnJmLDwT&#xA;/lUX5lf9S9df8Cv9c2n5vF/ODXwlFaV+S/5h3ep2lrc6NcWlvPMkc904ULEjMAznf9kb4JazGASC&#xA;oiX15ZWdvZWcFnbJ6dtbRpDDGOipGoVR9AGc+TZst75i/ND8rvPF95+1q80zRbi5sbmcTQzxheLc&#xA;0VmI3/mJzd6bUwGMAndplE2xb/lUX5lf9S9df8Cv9cu/N4v5wRwl6L+Rf5V+Y9P84nWfMGmyWUOn&#xA;wsbQTAfHPL8AIFT9lC300zE1uqiYcMTdsoR3fQ+ahteA/wDOQHk7zp5i822UmkaVPeWFtZLH6sYB&#xA;X1WlkZ+p/l45tdDmhCBs0bapgkvMf+VRfmV/1L11/wACv9czfzeL+cGPCXf8qi/Mr/qXrr/gV/rj&#xA;+bxfzgvCXf8AKovzK/6l66/4Ff64/m8X84LwlNfKX5R+fV806O99odzBZJe27XUzgBViWVS5ND/K&#xA;DkMuqx8Jo70oibZn+fXkvzt5i86w3GlaTcXljb2UUCSxgFC3N3bqevx0zG0OaEIUTvbKYJLzf/lU&#xA;X5lf9S9df8Cv9czPzeL+cGPCXf8AKovzK/6l66/4Ff64/m8X84LwlVt/yY/M+4bjHoE6np+8eKIf&#xA;fI6jE6zEP4l4Sy3y7/zjP5uvJkfW7q30u2r8aI31icjwAWkY+fP6Mx8naMB9O6RjL3XTPLlh5L8p&#xA;S2HluyaWSFC0abNLNO1F9SRtuRrSvsKDbNLqs85Ay5yZyuMdubyOXyR50mleWXTLh5JGLu5AJLMa&#xA;knfOYOkzE2Yl1BwZD0TDy3+XWvXGt2sep2ElvYB+dzI9ACi/Fx6/tU45bg0MzMcQqLZi00jIWNnu&#xA;IAAoNgM6J2zsVeX/AJp+U9Z1LWra902ze5VrcRzGMA0ZHYivzDZp+0NNOcwYi9nX6vDKUgQGF/4D&#xA;84f9Wqf7h/XMD8nl/mlxfy8+5mt1pPmaX8sbbSPqExvo7n03hoOXohmkVuvQbLmfLHkOnEa3tyjC&#xA;ZwiNb2wr/AfnD/q1T/cP65gfk8v80uL+Xn3PRfyn8u6ppMWpSajbPbSTtEsavSpVAxJH/BZtOzcE&#xA;oCXEKtzdHiMbsM/zZua8n/MX8v8AUZdY/SOjWrTx3lWuYo6VSUdW3PR+vzrml12ikZ8UBduu1OnP&#xA;FcRzYn/gPzh/1ap/uH9cwvyeX+aXG/Lz7nsX5f6Vc6X5Us7W6iMN1WR5o2pUFpGIrT/Jpm90WMwx&#xA;AHm7PTwMYAFJ5fzj8qjV3062ttSv1iuvqM1/aWcktolwG4GMyjqQf5Qcym9kGj+btK1bXta0O1Eo&#xA;vdBaBL4uoCE3KM6emQSW2Q1qBiqEsPzD8s3dnr168z2ln5bu5rLU57heKrJbmjlOJYsv8u1T4Yqx&#xA;vT/z+8jXV5bRSxahYWd5J6Vnqt5amOzlatBwkDMae5UU74qm/m3809B8sa4mi3dlqF5fPaC+K2Fv&#xA;9YCwGRouTUYEUZN9vDFV0/5r+TI/K9j5kS5kuLHUpfq9hDBC8lzLOCwMSwgcuQKHrt77iqqZeUvO&#xA;Nh5ntrma0tL2yNpL6M8N/btbyB6cvstWuxxVEebPMUPlzy3qGuTwtPFp8RmeFCAzAECgJ274qv1b&#xA;X7TSvL1zrtzHI1paW5u5kiAaQRqvNqAlQaDfriqS61+aPlPRtD0TWr2WQWOvtCtiUUFgJ09QPIOQ&#xA;4qgI5daYqi9d8+aJouspo90sz3jWNxqbCJAypb2qlnZiWWhbiQvicVSnyp+bmieZtQtLPT9K1eOO&#xA;9DtDfXFmUtaIjPUzBmXfhQe+2KpZD/zkD5HcetLbanbaeJTA+py2jfVVcNxoZUZ++Kp/5o/Mzy75&#xA;e1CLTJYrzUdSmg+trZabbvdSC3qV9VuNFCVHjirf/KytA5+XYzDdrJ5mW4fTo2h4MPqqh5BKrEMp&#xA;o3w7GuKseP5+eWReiwOia8L5o/WFr9QPqmOvHnw58uNdq0piqO1L85vL9jqbaZ+itYu7yOCC4mjt&#xA;bMzGNbmMSoJAGqrUahBHXFUZrX5q+XdJGnRy2uoXOo6laLfxaVa2rzXcdu4HxTRj7FDsanqDirIv&#xA;L+uWmu6PbaraJNFb3QYpHcRmKUcWKEMjbjdcVUbbzFDP5ovvL4hZZrG1t7t5yRxZbl5ECgdaj0cV&#xA;S3zj+Y3lzyjfaPZ6wZkbWpWhtZY0DRoUaNWaUlgVUesvQHviq7z5+YXl7yRpsF/rTSmO5m9CGKBQ&#xA;8jNxLE8Sy/CANzXuMVX+cfPugeUtAj1zV2kFpM8cUKRKGlZ5QWACllH2VJO/bFW/MPnzQdC8pL5r&#xA;ujJNpEiQSRvAod2S5K+mwUlevMd8VQnlL8z/AC55m1ObSbaO7sdVgi+sNY6hbtbymLkF5qDUEVI7&#xA;4qpt+a/lJPKKeaZHnSwlna0trcxg3M06SGL04olY8iWU036YqhdZ/OHQtJ1caPNpWrT6kLaK7ltr&#xA;W1E7xpMKgSBHNCtaN2r3xVD63+d3lzRYkm1DSdZht3iimNwbIiNROoZUd2dQHHKhHjtiqNt/za0C&#xA;SDT5Z9P1Ox/SepRaRax3lr6DmeYAqxVm/u992GKo7T/zH8tX3nW+8mxvJHrVivN1kULHIOKuRE3I&#xA;8iFepFPHwxVF2fnTQ7m/16zMjW58uGManPPxSJRJGZQwev2Qo3JpirG7X87vK15LCbLTtYubC4mF&#xA;vBqkdhKbR3YhRxkND1P8tcVYbe6s3kC9j1DyX5gstb8u6vqSrN5XaSOWdJrlx6n1N4zy6n7DD4e9&#xA;cVVNI0Tzhqn5sfmF/h3zL/h30ZtO+tf6DBfetygfh/fFeHDi3TrX2xViNzpurn8sPzFgmlbU57Lz&#xA;Q8mrTogiNwkMqetL6abICw5lRso+WKs9/Nvz15C1f8rLqx0u/tdQudTWCHStOtmVp/V9WPgBCtWQ&#xA;x+BA8O+KoO9s/PUf5r6baaFcWUWuxeTII7241BZJI6Le0lKCL9v1KUrUUriqNf8AKzRNE8p6XpGo&#xA;eaE0zzNFfTappmssYof9NfiJFjhkIDx048krv16bYqyH8pfOeu+YrbWLTWHtryfRLz6musWP+812&#xA;ONeS/s8h1bjtuNsVRf5zf+Su8yf8wjf8SXFWSRWcF7oKWdwvK3ubUQzL4pJHxYfccVfNvlvy9qXn&#xA;ON/Jd4peTyPpWqWquagHUJrh4rcUPYIgp8sVT/yLqdx5vtPOXm+7BL2XlqLRoXbvILRprv5fvhX6&#xA;cVTz8jDqw0nQPU882t1YtbME8pi3tFnT4WIX1lf1zw+2fhxV5hbm9H5Vak0vm+1i0tb6R5fJ0iQp&#xA;Nc8LhWIWdW+s/HTlQLTbwxV6n5otrKK5g82eXvMVp5W83WOlQR3+i30kRie34CVILiNjzVhXiH36&#xA;Cm++KoKTzLd+Z/Mv5O69eWos7m+/SrywCvEFYo05JWp4Px5rU9DirIrr/wBaOs//AAFz/wBRsmKs&#xA;b1b9K/8AK4/Nf6P842/lA/VtO9SS5t7a4FwPR2VRcugXh/k+OKpz5x061F/a+ZdE862On+c7DTYo&#xA;bqe4e3W2vrU/vQ0sNTwWVviVkqPDoCFWZ/lv5pvvNXkrTNevrUWd1eIxlhWvAlJGTmnLfi4XkK+P&#xA;friqB0r/AMm35g/7ZGm/8nrrFWI/nh5cTzL5v8l6GwBa9tteSEnoJlsUeFjX+WRVOKvN/N3mG+88&#xA;eTr/AFy8iYL5S0m1sZVlBFdVvbyKG5kFf+KU+gnFWb+ebzWfMHnzRdG0jQv8S2nlmwFzqmm/WorS&#xA;Npr6H04w8ktV+COjKAK7nFWL6nql+P8AnH/XfK+rRNb6x5Xv7ezntnZXdYZLhZIKsnwsKclBGxC4&#xA;qzbyvb61/wArulHni9jk12203/nXPqkfo2k9u5Yzla1cvHVhxY+J6AYqwHyMl7oEnlrzprwXUPKM&#xA;N7e2MKEGmmTTXDAXbLXixZ6gsRsKftcMVZb5ia/f88NVfTfNlv5UZtHtj9fnhtrhJkLLSNRcMib/&#xA;AGqg12xVO/z0aQ/kfKZb5NTl42Il1KNURLhxLGGmVYyUUSH4qKaDFUb+dP8Ax0fy/wD/AAKLD/iR&#xA;xVh2q+UdQ1jzj5+1nQv3fmny9qFhe6RIoqZONqfVtz4rKopTuaDpXFUmXWLjzj5K/NbVtKgkSW9/&#xA;Rdw9v+2iwKrXK+4VYn+YxVlvmb8xbvT/ACjouseStc0tNHigtLV9HZUe55syxlVXlVPTQiq07Yq9&#xA;LtPIHkez1FdTtNBsIL9G9RLmO3iV1c/tKQvwt7jFUztNH0qzvry/tbSKG91Aob64RQrzGIFUMjD7&#xA;XEE0xVqx0TSLA3f1Kzht/r8z3F76aBfWmk+3JJT7TN3JxVLtP8g+SNO1BdRsNBsLW+QlkuIreJHU&#xA;nqUIX4T8sVTT9E6Z+lf0v9Wj/SfofVPrnEer6HP1PS5dePP4qeOKofXPLPl7Xooota0221GOEloV&#xA;uYlk4E7EryBpXvTFVbSdG0nR7NbLSrOGxs0JZbe3jWNKnqeKgCp7nFUr/MDy/e+YvJmraJZPHHd3&#xA;8BiheYssYYkH4iqu1NuwxVO7SJobSGFiC0caoxHSqgDbFUPYaHo+n3d5eWNlDbXWoOJL6eJArzOt&#xA;aNIR9ojkevjiqnY+W9AsLG60+y0+C2sr1pHu7aKNVSVpVCyF1AoSyihxVAaV+X3kfSb+LUNM0Oys&#xA;76Hl6NzDCiSLzUo1GAqKqxGKqcH5afl9BdC6i8uacLhW5rIbaMkNWvLcHevfFURq/kXyZrN79e1X&#xA;RLK+vKBTcTwRu5C9AzEVNPfFUbJoGiST6fcPYwGbSgy6Y/pqDbq6hGEVB8AKqBt2xVe2j6U2rLrB&#xA;tIjqiQ/VlveI9UQ8i/p8+vHka0xVLNW8g+StYvnv9U0Szvb2QKHuJ4UdyFHFQWI7AUxVq+/L3yLf&#xA;/V/rmgWFwbWJLe3MlvGxSGIcY4wSPsqNgO2Kp7b28FtBHb28aQwRKEiijUKiqBQKqigAGKpFZeX7&#xA;2Dzzqmvu8Zs72xtLSKMFvVD28kzuWHHjxIlFKNiqbXOk6Zc39nqFxbRy32n+p9SuXUGSH1l4ScG6&#xA;rzUUOKoJ/KHld7C909tKtTY6lMbm/tvSX05piwf1JFpRm5IDU+GKoqw0PR9Pubq6sbOG2ub4obya&#xA;NArymMFU5kfa4gkDFUJfeTfKl/Jey3uk2txJqPp/X2kiVjP6NPS9So+LhQca9MVRd7omkX17Z315&#xA;ZxT3mnsz2Vw6AyQs1ORRuq1pviqinljy6mjyaKum240iXkZbD019Fi7c2qlKbtv88VS+8/LjyFet&#xA;E13oFjcNDEkETSQoxWKIcUQVH2VGwGKpjc+WfL1zoyaJcadBLpEaoiWDxqYQsZBQBOnw02xVW1DR&#xA;9K1J7V7+0iumsplubNpVDGKaP7EiV6MvY4qutdJ0y0u7u8tbWOG6v2V72dFAeVo14oXI+1xXYYqo&#xA;6Z5e0PSpbubTbCCzlv5PVvXhRUMslSeT06n4jiqWD8t/y/F79dHlzTvrXL1PU+qxfb68qcaVrvXx&#xA;xV//2Q==</xmpGImg:image>
               </rdf:li>
            </rdf:Alt>
         </xmp:Thumbnails>
         <xmpTPg:MaxPageSize rdf:parseType="Resource">
            <stDim:w>86.708230</stDim:w>
            <stDim:h>23.324736</stDim:h>
            <stDim:unit>Millimeters</stDim:unit>
         </xmpTPg:MaxPageSize>
         <xmpTPg:NPages>1</xmpTPg:NPages>
         <xmpTPg:HasVisibleTransparency>False</xmpTPg:HasVisibleTransparency>
         <xmpTPg:HasVisibleOverprint>False</xmpTPg:HasVisibleOverprint>
         <xmpTPg:PlateNames>
            <rdf:Seq>
               <rdf:li>Cyan</rdf:li>
               <rdf:li>Magenta</rdf:li>
               <rdf:li>Yellow</rdf:li>
               <rdf:li>Black</rdf:li>
            </rdf:Seq>
         </xmpTPg:PlateNames>
         <xmpTPg:SwatchGroups>
            <rdf:Seq>
               <rdf:li rdf:parseType="Resource">
                  <xmpG:groupName>Standard-Farbfeldgruppe</xmpG:groupName>
                  <xmpG:groupType>0</xmpG:groupType>
               </rdf:li>
            </rdf:Seq>
         </xmpTPg:SwatchGroups>
         <dc:format>image/svg+xml</dc:format>
      </rdf:Description>
   </rdf:RDF>
</x:xmpmeta>
                                                                                                    
                                                                                                    
                                                                                                    
                                                                                                    
                                                                                                    
                                                                                                    
                                                                                                    
                                                                                                    
                                                                                                    
                                                                                                    
                                                                                                    
                                                                                                    
                                                                                                    
                                                                                                    
                                                                                                    
                                                                                                    
                                                                                                    
                                                                                                    
                                                                                                    
                                                                                                    
                           
<?xpacket end="w"?>
	</metadata>
<title>Element 1</title>
<g id="Ebene_2">
	<g id="Ebene_1-2">
		<path class="st0" d="M32.7,44.5L30.9,27c-0.2-2-0.3-4.5-0.4-7c-0.9,3.1-1.5,5.3-2.3,7.7l-6.6,16.9H5.1L0,0h14.5l1.7,25
			c0.1,1.6,0.1,3.1,0.1,4.7c0.5-1.9,1-3.6,1.5-5.5l8-24.2h14.7l1.1,25c0.1,1.6,0.1,3.2,0.1,4.7c0.5-2,1-3.8,1.5-5.5L52,0h14.7
			L49.9,44.5H32.7z"/>
		<path class="st0" d="M81.5,17.1h17.2l-1.5,10.7H79.9l-0.7,5.3h20.9l-1.6,11.5H64.1L70.4,0h33.8l-1.6,11.7H82.2L81.5,17.1z"/>
		<path class="st0" d="M128.3,0c10.9,0,15.7,4.6,15.1,12.2c-0.1,4.1-2.6,7.7-6.4,9.2c4.7,1.5,6.9,5,6.5,9.9
			c-0.5,9.8-7.3,13.2-21.3,13.2h-19.9L108.5,0H128.3z M122.9,33.8c4.6,0,6.7-1.5,7-4.3c0.1-2.3-1.2-3.4-4.5-3.4h-6.9l-1.1,7.7H122.9
			z M124.5,17.4c3.5,0,5.8-1.2,5.9-3.7c0.1-2-0.9-3-4-3h-5.8l-0.9,6.7H124.5z"/>
		<path class="st1" d="M161.8,37.9l-3.1,6.6H144L166.3,0h18.6l9.7,44.5h-14.2l-1.2-6.6H161.8z M175,15.6c-0.4-2.3-0.6-3.4-0.7-4.6
			h-0.1c-0.4,1.4-1.2,3.1-2,4.9l-5,10.4h9.7L175,15.6z"/>
		<path class="st1" d="M227.3,44.5L213.6,22c-0.1,1.4-0.4,2.8-0.5,4.2l-2.6,18.3h-13.7L203.2,0h12.2l13.8,22.6
			c0.1-1.3,0.2-2.7,0.4-4L232.2,0h13.6l-6.3,44.5H227.3z"/>
		<path class="st2" d="M7.4,59.4c0,0.9-0.4,1.8-1.1,2.3c-0.9,0.6-1.9,0.9-3,0.8c-1.1,0-2.1-0.2-3.1-0.6v-1.7
			c0.5,0.2,1.1,0.4,1.6,0.6C2.4,61,3,61.1,3.5,61.1c0.6,0,1.1-0.1,1.6-0.4c0.3-0.3,0.5-0.7,0.5-1.1c0-0.4-0.2-0.8-0.5-1.1
			c-0.6-0.4-1.3-0.8-2-1c-0.8-0.3-1.6-0.8-2.2-1.4c-0.4-0.5-0.6-1.2-0.6-1.9c0-0.8,0.3-1.7,1-2.2c0.8-0.6,1.7-0.9,2.7-0.8
			c1.1,0,2.2,0.2,3.2,0.7l-0.6,1.5C5.9,52.9,5,52.7,4,52.7c-0.5,0-1,0.1-1.3,0.4c-0.3,0.2-0.5,0.6-0.5,1c0,0.3,0.1,0.5,0.2,0.7
			c0.2,0.2,0.4,0.4,0.6,0.6c0.5,0.3,1,0.5,1.5,0.7c0.6,0.2,1.2,0.6,1.8,1c0.4,0.3,0.6,0.6,0.8,1C7.4,58.5,7.5,59,7.4,59.4z"/>
		<path class="st2" d="M18.4,62.4h-1.8v-5h-5.1v5H9.6V51.3h1.8v4.6h5.1v-4.6h1.8L18.4,62.4z"/>
		<path class="st2" d="M31.2,56.9c0.1,1.5-0.4,3-1.4,4.2c-1,1-2.4,1.6-3.9,1.5c-1.4,0.1-2.9-0.5-3.9-1.5c-1-1.2-1.5-2.7-1.4-4.3
			c-0.1-1.5,0.4-3.1,1.4-4.2c1-1,2.4-1.6,3.9-1.5c1.4-0.1,2.8,0.5,3.8,1.5C30.8,53.8,31.3,55.3,31.2,56.9z M22.7,56.9
			c-0.1,1.1,0.2,2.2,0.8,3.1c0.6,0.7,1.5,1.1,2.5,1.1c0.9,0.1,1.9-0.3,2.5-1.1c0.6-0.9,0.9-2,0.8-3.1c0.1-1.1-0.2-2.2-0.8-3.1
			C27.9,53,27,52.6,26,52.7c-0.9-0.1-1.9,0.3-2.5,1.1C22.9,54.7,22.6,55.8,22.7,56.9L22.7,56.9z"/>
		<path class="st2" d="M41,54.7c0.1,1-0.4,2-1.1,2.7c-0.9,0.7-2.1,1-3.3,0.9h-1.2v4.2h-1.8V51.3h3.2c1.1-0.1,2.2,0.2,3.1,0.9
			C40.7,52.8,41.1,53.7,41,54.7z M35.4,56.7h1c0.7,0.1,1.4-0.1,2.1-0.5c0.5-0.4,0.7-0.9,0.7-1.5c0-0.5-0.2-1.1-0.6-1.4
			c-0.5-0.4-1.2-0.5-1.8-0.5h-1.3V56.7z"/>
		<path class="st2" d="M49.7,59.4c0,0.9-0.4,1.8-1.1,2.3c-0.9,0.6-1.9,0.9-3,0.8c-1.1,0-2.1-0.2-3.1-0.6v-1.7
			c0.5,0.2,1.1,0.4,1.6,0.6c0.5,0.1,1.1,0.2,1.6,0.2c0.6,0,1.1-0.1,1.6-0.4c0.3-0.3,0.5-0.7,0.5-1.1c0-0.4-0.2-0.8-0.5-1.1
			c-0.6-0.4-1.3-0.8-2-1c-0.8-0.3-1.6-0.8-2.2-1.4c-0.4-0.5-0.6-1.2-0.6-1.9c0-0.8,0.3-1.7,1-2.2c0.8-0.6,1.7-0.9,2.7-0.8
			c1.1,0,2.2,0.2,3.2,0.7l-0.6,1.5c-0.8-0.4-1.7-0.6-2.7-0.6c-0.5,0-1,0.1-1.3,0.4c-0.3,0.2-0.5,0.6-0.5,1c0,0.3,0.1,0.5,0.2,0.7
			c0.2,0.2,0.4,0.4,0.6,0.6c0.5,0.3,1,0.5,1.5,0.7c0.6,0.2,1.2,0.6,1.8,1c0.4,0.3,0.6,0.6,0.8,1C49.6,58.5,49.7,59,49.7,59.4z"/>
		<path class="st2" d="M60.2,50.6h1.4v15.5h-1.4V50.6z"/>
		<path class="st2" d="M79.4,62.4h-2l-1.9-6.6c-0.1-0.3-0.2-0.7-0.3-1.3c-0.1-0.5-0.2-0.9-0.2-1.1c-0.1,0.3-0.1,0.7-0.2,1.3
			c-0.1,0.5-0.2,0.9-0.3,1.2l-1.8,6.6h-2l-1.4-5.6l-1.5-5.6h1.9l1.6,6.5c0.2,0.9,0.4,1.8,0.5,2.8c0.1-0.4,0.1-0.9,0.3-1.4
			c0.1-0.5,0.2-1,0.3-1.3l1.8-6.5h1.8l1.9,6.5c0.2,0.9,0.4,1.8,0.6,2.7c0.1-0.9,0.3-1.9,0.5-2.8l1.6-6.5h1.8L79.4,62.4z"/>
		<path class="st2" d="M90.2,62.4h-6.3V51.3h6.3v1.5h-4.5v3h4.2v1.5h-4.2v3.5h4.5L90.2,62.4z"/>
		<path class="st2" d="M92.6,51.3h3.3c1.1-0.1,2.3,0.1,3.3,0.7c0.7,0.5,1.1,1.3,1,2.1c0,0.6-0.2,1.2-0.5,1.6
			c-0.4,0.4-0.9,0.7-1.4,0.8v0.1c0.7,0.1,1.3,0.4,1.7,0.9c0.4,0.5,0.6,1.1,0.6,1.8c0,0.9-0.3,1.8-1,2.4c-0.8,0.6-1.9,0.9-2.9,0.8h-4
			V51.3z M94.4,55.9h1.8c0.6,0,1.2-0.1,1.7-0.4c0.4-0.3,0.6-0.8,0.5-1.2c0-0.5-0.2-0.9-0.6-1.1c-0.6-0.3-1.2-0.4-1.8-0.4h-1.6
			L94.4,55.9z M94.4,57.4v3.5h1.9c0.6,0,1.2-0.1,1.7-0.4c0.4-0.3,0.6-0.9,0.6-1.4c0-0.5-0.2-1-0.6-1.3c-0.5-0.3-1.2-0.5-1.8-0.4
			L94.4,57.4z"/>
		<path class="st2" d="M109.4,59.4c0,0.9-0.4,1.8-1.1,2.3c-0.9,0.6-1.9,0.9-3,0.8c-1.1,0-2.1-0.2-3.1-0.6v-1.7
			c0.5,0.2,1.1,0.4,1.6,0.6c0.5,0.1,1.1,0.2,1.6,0.2c0.6,0,1.1-0.1,1.6-0.4c0.3-0.3,0.5-0.7,0.5-1.1c0-0.4-0.2-0.8-0.5-1.1
			c-0.6-0.4-1.3-0.8-2-1c-0.8-0.3-1.6-0.8-2.2-1.4c-0.4-0.5-0.6-1.2-0.6-1.9c0-0.8,0.3-1.7,1-2.2c0.8-0.6,1.7-0.9,2.7-0.8
			c1.1,0,2.2,0.2,3.2,0.7l-0.6,1.5c-0.8-0.4-1.7-0.6-2.7-0.6c-0.5,0-1,0.1-1.3,0.4c-0.3,0.2-0.5,0.6-0.5,1c0,0.3,0.1,0.5,0.2,0.7
			c0.2,0.2,0.4,0.4,0.6,0.6c0.5,0.3,1,0.5,1.5,0.7c0.6,0.2,1.2,0.6,1.8,1c0.4,0.3,0.6,0.6,0.8,1C109.3,58.5,109.4,59,109.4,59.4z"/>
		<path class="st2" d="M111.5,62.4V51.3h1.8v11.1H111.5z"/>
		<path class="st2" d="M120.1,62.4h-1.8v-9.6H115v-1.6h8.4v1.6h-3.3L120.1,62.4z"/>
		<path class="st2" d="M131.4,62.4h-6.3V51.3h6.3v1.5h-4.5v3h4.2v1.5h-4.2v3.5h4.5L131.4,62.4z"/>
		<path class="st2" d="M140.3,59.4c0,0.9-0.4,1.8-1.1,2.3c-0.9,0.6-1.9,0.9-3,0.8c-1.1,0-2.1-0.2-3.1-0.6v-1.7
			c0.5,0.2,1.1,0.4,1.6,0.6c0.5,0.1,1.1,0.2,1.6,0.2c0.6,0,1.1-0.1,1.6-0.4c0.3-0.3,0.5-0.7,0.5-1.1c0-0.4-0.2-0.8-0.5-1.1
			c-0.6-0.4-1.3-0.8-2-1c-0.8-0.3-1.6-0.8-2.2-1.4c-0.4-0.5-0.6-1.2-0.6-1.9c0-0.8,0.3-1.7,1-2.2c0.8-0.6,1.7-0.9,2.7-0.8
			c1.1,0,2.2,0.2,3.2,0.7l-0.6,1.5c-0.8-0.4-1.7-0.6-2.7-0.6c-0.5,0-1,0.1-1.3,0.4c-0.3,0.2-0.5,0.6-0.5,1c0,0.3,0.1,0.5,0.2,0.7
			c0.2,0.2,0.4,0.4,0.6,0.6c0.5,0.3,1,0.5,1.5,0.7c0.6,0.2,1.2,0.6,1.8,1c0.4,0.3,0.6,0.6,0.8,1C140.2,58.5,140.3,59,140.3,59.4z"/>
		<path class="st2" d="M148.6,50.6h1.4v15.5h-1.4V50.6z"/>
		<path class="st2" d="M162.4,62.4l-3.2-9.3h-0.1c0.1,1.4,0.1,2.7,0.1,3.9v5.4h-1.7V51.3h2.6l3.1,8.9h0l3.2-8.9h2.6v11.1h-1.8v-5.5
			c0-0.6,0-1.3,0-2.2c0-0.9,0.1-1.4,0.1-1.6h-0.1l-3.3,9.3H162.4z"/>
		<path class="st2" d="M178.9,62.4l-1.1-3.1h-4.3l-1.1,3.1h-1.9l4.2-11.2h2l4.2,11.2H178.9z M177.3,57.8l-1-3
			c-0.1-0.2-0.2-0.5-0.3-1s-0.2-0.8-0.3-1c-0.2,0.7-0.4,1.4-0.6,2.1l-1,2.9L177.3,57.8z"/>
		<path class="st2" d="M184.1,58v4.5h-1.8V51.3h3.1c1.1-0.1,2.2,0.2,3.2,0.8c0.7,0.6,1.1,1.5,1,2.4c0,1.4-0.9,2.6-2.2,3l3.1,4.9
			h-2.1l-2.7-4.5L184.1,58z M184.1,56.5h1.3c0.7,0.1,1.3-0.1,1.8-0.5c0.4-0.4,0.6-0.9,0.6-1.4c0-0.5-0.2-1-0.6-1.4
			c-0.6-0.3-1.2-0.5-1.9-0.4h-1.2L184.1,56.5z"/>
		<path class="st2" d="M200.8,62.4h-2.1l-3.5-5l-1.1,0.9v4.2h-1.8V51.3h1.8v5.3c0.5-0.6,1-1.2,1.5-1.8l3-3.6h2.1
			c-1.9,2.3-3.3,3.9-4.2,4.9L200.8,62.4z"/>
		<path class="st2" d="M208.6,62.4h-6.3V51.3h6.3v1.5h-4.5v3h4.2v1.5h-4.2v3.5h4.5V62.4z"/>
		<path class="st2" d="M214.8,62.4H213v-9.6h-3.3v-1.6h8.4v1.6h-3.3V62.4z"/>
		<path class="st2" d="M219.8,62.4V51.3h1.8v11.1H219.8z"/>
		<path class="st2" d="M233.9,62.4h-2.2l-5.5-8.9h-0.1l0,0.5c0.1,0.9,0.1,1.8,0.1,2.6v5.8h-1.7V51.3h2.2l5.5,8.8h0
			c0-0.1,0-0.5-0.1-1.3c0-0.7,0-1.3,0-1.7v-5.8h1.7L233.9,62.4z"/>
		<path class="st2" d="M241.4,56.4h4.1V62c-0.6,0.2-1.3,0.4-1.9,0.5c-0.7,0.1-1.3,0.1-2,0.1c-1.5,0.1-2.9-0.5-3.9-1.5
			c-1-1.2-1.5-2.7-1.4-4.2c-0.1-1.6,0.5-3.1,1.5-4.2c1.2-1.1,2.7-1.6,4.3-1.5c1.1,0,2.3,0.2,3.3,0.7l-0.6,1.5
			c-0.8-0.4-1.8-0.6-2.7-0.6c-1.1-0.1-2.1,0.4-2.8,1.1c-0.7,0.8-1.1,1.9-1,3.1c-0.1,1.1,0.3,2.2,0.9,3.1c0.7,0.7,1.7,1.1,2.7,1.1
			c0.6,0,1.3-0.1,1.9-0.2V58h-2.3V56.4z"/>
	</g>
</g>
</svg>
